<svg width="8" height="11" viewBox="0 0 8 11" fill="none" xmlns="http://www.w3.org/2000/svg">
<path d="M4.41322 10.8591L7.7823 8.10899C8.0602 7.87913 8.06198 7.51021 7.84489 7.27715C7.62781 7.04411 7.20297 7.01635 6.95319 7.21891L4.63037 9.11572L4.63037 0.58931C4.63037 0.263848 4.34754 6.34366e-07 3.99867 6.03867e-07C3.64978 5.73366e-07 3.36697 0.263848 3.36697 0.58931L3.36697 9.11572L1.04415 7.21891C0.794367 7.01635 0.375802 7.04931 0.152447 7.27715C-0.0815436 7.51583 -0.0348155 7.90653 0.21504 8.10899L3.58411 10.8591C3.8602 11.0521 4.17154 11.0418 4.41322 10.8591Z" fill="#818181"/>
</svg>
