<svg width="22" height="30" viewBox="0 0 22 30" fill="none" xmlns="http://www.w3.org/2000/svg">
<path d="M12.7487 1.84125C12.7487 0.825 11.9667 0 11.0036 0C10.0404 0 9.25845 0.825 9.25845 1.84125C9.25845 2.8575 10.0404 3.6825 11.0036 3.6825C11.9667 3.6825 12.7487 2.8575 12.7487 1.84125Z" fill="#939393"/>
<path d="M21.7691 24.66C21.9895 24.3488 22.057 23.955 21.9504 23.58C21.6412 22.4738 21.0014 21.3375 20.0489 20.2087C19.4092 19.4512 19.0573 18.4575 19.0573 17.415V13.395C19.0573 8.7075 15.4427 4.89375 11 4.89375C6.55728 4.89375 2.94269 8.7075 2.94269 13.395V17.415C2.94269 18.4575 2.59082 19.4512 1.95107 20.2087C1.00211 21.3375 0.362357 22.4738 0.0495902 23.58C-0.0570351 23.955 0.0104943 24.345 0.230853 24.66C0.451212 24.9713 0.788858 25.1513 1.15849 25.1513H20.8344C21.204 25.1513 21.5417 24.9713 21.762 24.66H21.7691Z" fill="#939393"/>
<path d="M14.4973 26.3663H7.5098C7.53823 28.3725 9.09496 30 11.0036 30C12.9121 30 14.4689 28.3763 14.4973 26.3663Z" fill="#939393"/>
</svg>
