<svg width="15" height="15" viewBox="0 0 15 15" fill="none" xmlns="http://www.w3.org/2000/svg">
<g clip-path="url(#clip0_2531_311)">
<path d="M11.7613 10.1259C7.64827 10.1259 5.01774 7.56426 5.01774 3.46852C5.01774 2.62217 5.22301 1.4131 5.49671 0.785895C5.56512 0.612091 5.58033 0.506297 5.58033 0.430731C5.58033 0.2267 5.42828 0 5.13178 0C5.04815 0 4.86569 0.02267 4.69843 0.0831233C1.88545 1.20151 0 4.20907 0 7.37532C0 11.8186 3.40598 14.9925 7.86113 14.9925C11.1379 14.9925 13.9737 13.0202 14.9164 10.5567C14.9848 10.3829 15 10.2015 15 10.1335C15 9.85388 14.7643 9.66501 14.5514 9.66501C14.4526 9.66501 14.369 9.68764 14.2245 9.73304C13.6391 9.92191 12.6964 10.1259 11.7613 10.1259Z" fill="#696C73"/>
</g>
<defs>
<clipPath id="clip0_2531_311">
<rect width="15" height="15" fill="white"/>
</clipPath>
</defs>
</svg>
