<svg width="10" height="15" viewBox="0 0 10 15" fill="none" xmlns="http://www.w3.org/2000/svg">
<path fill-rule="evenodd" clip-rule="evenodd" d="M9.99375 3.03079L9.71909 2.04493C9.6126 1.66118 9.19839 1.4315 8.80034 1.53468L7.0451 1.98698L6.89308 1.44211C6.74913 0.78204 5.95156 0.343872 5.2906 0.552345L3.08449 1.12125C2.39709 1.25976 1.96305 1.95659 2.15986 2.66329L2.31115 3.20746L0.55591 3.65976C0.157123 3.76223 -0.0815556 4.16081 0.0256663 4.54386L0.30033 5.52972C0.331175 5.64209 0.452352 5.70923 0.569127 5.67884L9.83744 3.28871C9.95421 3.25903 10.024 3.14243 9.9924 3.03005L9.99375 3.03079ZM3.39142 2.92903L3.23205 2.35658C3.21075 2.27177 3.25555 2.1898 3.34515 2.16647L5.6101 1.58272C5.69456 1.56081 5.78709 1.60745 5.80693 1.69155L5.96629 2.26541L3.39075 2.92972L3.39142 2.92903ZM1.61046 13.811C1.64497 14.2018 1.98208 14.5 2.38966 14.5H8.22454C8.63215 14.5 8.96923 14.2018 9.00375 13.811L9.70585 5.77344H0.907563L1.60967 13.811H1.61046ZM6.19244 12.5057L6.46564 7.70714C6.48326 7.3976 6.75867 7.16015 7.08033 7.1771C7.402 7.19406 7.64876 7.45908 7.63115 7.76861L7.35795 12.5671C7.34032 12.8767 7.06492 13.1141 6.74325 13.0972C6.42159 13.0802 6.17482 12.8152 6.19244 12.5057ZM3.5338 7.17704C3.85546 7.16008 4.13088 7.39755 4.14849 7.70708L4.42169 12.5056C4.43932 12.8151 4.19254 13.0802 3.87088 13.0971C3.54921 13.1141 3.2738 12.8766 3.25618 12.5671L2.98298 7.76856C2.96536 7.45902 3.21213 7.194 3.5338 7.17704Z" fill="#D0D0D0"/>
</svg>
