<svg width="14" height="15" viewBox="0 0 14 15" fill="none" xmlns="http://www.w3.org/2000/svg">
<path d="M7.00202 10.843C7.09848 10.843 7.19035 10.8224 7.2737 10.7854C7.35835 10.7477 7.43382 10.6935 7.49747 10.6264L10.5002 7.5C10.7738 7.2141 10.7738 6.75132 10.5002 6.46543C10.2272 6.18022 9.78359 6.18022 9.51059 6.46543L7.70013 8.34687L7.70013 1.23154C7.70013 0.827719 7.38645 0.5 6.99993 0.5C6.61341 0.5 6.29973 0.827719 6.29973 1.23154L6.29973 8.34687L4.49958 6.46543C4.22659 6.18022 3.78299 6.18022 3.51 6.46543C3.23635 6.75132 3.23635 7.2141 3.51 7.5L6.50509 10.6292C6.57334 10.7011 6.65274 10.7546 6.73805 10.7903C6.81679 10.8239 6.90342 10.8424 6.99331 10.8431L7.00202 10.843Z" fill="#D0D0D0"/>
<path d="M1.4004 11.1566C1.4004 10.7528 1.08672 10.4251 0.700202 10.4251C0.31368 10.4251 0 10.7528 0 11.1566V12.3061C0 13.5175 0.940384 14.5 2.09993 14.5H11.9001C13.0596 14.5 14 13.5175 14 12.3061V11.1566C14 10.7528 13.6863 10.4251 13.2998 10.4251C12.9133 10.4251 12.5996 10.7528 12.5996 11.1566V12.3061C12.5996 12.7099 12.2866 13.0369 11.9001 13.0369H2.09992C1.71339 13.0369 1.40037 12.7099 1.40037 12.3061L1.4004 11.1566Z" fill="#D0D0D0"/>
</svg>
