<svg width="16" height="17" viewBox="0 0 16 17" fill="none" xmlns="http://www.w3.org/2000/svg">
<path d="M11.4702 16.5H1.53221C0.687497 16.5 0 15.8132 0 14.9678V5.02981C0 4.18509 0.68748 3.4976 1.53221 3.4976H5.75781C6.13412 3.4976 6.43872 3.8022 6.43872 4.17851C6.43872 4.55482 6.13412 4.85942 5.75781 4.85942H1.53221C1.43814 4.85942 1.36182 4.93573 1.36182 5.02981V14.9685C1.36182 15.0625 1.43814 15.1388 1.53221 15.1388H11.4709C11.5649 15.1388 11.6413 15.0625 11.6413 14.9685L11.6406 10.7429C11.6406 10.3666 11.9452 10.062 12.3215 10.062C12.6978 10.062 13.0024 10.3666 13.0024 10.7429V14.9685C13.0024 15.8132 12.3149 16.5 11.4702 16.5Z" fill="#818181"/>
<path d="M15.7596 3.50086L14.805 4.45677C14.6254 4.63637 14.334 4.63702 14.1544 4.45677L12.0439 2.347C11.8643 2.1674 11.8643 1.87595 12.0439 1.69635L12.9992 0.739793C13.3189 0.420069 13.8386 0.420069 14.1584 0.739793L15.7603 2.34173C16.08 2.66211 16.08 3.18114 15.7596 3.50086Z" fill="#818181"/>
<path d="M13.4328 5.82991L7.72037 11.5403C7.68485 11.5758 7.64011 11.6001 7.59143 11.6113L4.50063 12.3185C4.30919 12.3626 4.13749 12.1909 4.18157 11.9995L4.88878 8.90868C4.89997 8.86 4.92497 8.81526 4.95984 8.77974L10.6722 3.06937C10.8518 2.88977 11.1433 2.88977 11.3229 3.06937L13.4326 5.17914C13.6122 5.35874 13.6122 5.65018 13.4326 5.82978L13.4328 5.82991Z" fill="#818181"/>
</svg>
