<svg width="18" height="18" viewBox="0 0 18 18" fill="none" xmlns="http://www.w3.org/2000/svg">
<path d="M8.99998 17.4815C13.6551 17.4815 17.4417 13.7534 17.4417 9.17009C17.4417 6.70982 16.3439 4.39047 14.4297 2.80792C13.8049 2.29104 12.8734 2.37073 12.3492 2.98582C11.8251 3.60006 11.9061 4.51805 12.5299 5.03412C13.7742 6.06373 14.4885 7.57151 14.4885 9.17016C14.4885 12.1499 12.0263 14.574 8.99988 14.574C5.97348 14.574 3.5113 12.1499 3.5113 9.17016C3.5113 7.5708 4.2255 6.06287 5.46983 5.03412C6.09455 4.51807 6.17552 3.6009 5.65051 2.98582C5.12551 2.37074 4.19483 2.29102 3.57011 2.80792C1.65591 4.39135 0.558105 6.71068 0.558105 9.17009C0.558105 13.7534 4.34486 17.4815 8.99998 17.4815Z" fill="black"/>
<path d="M7.52289 1.75061V6.69135C7.52289 7.49439 8.18424 8.14554 8.99987 8.14554C9.8155 8.14554 10.4769 7.49439 10.4769 6.69135V1.75061C10.4769 0.947564 9.8155 0.296417 8.99987 0.296417C8.18424 0.296417 7.52289 0.947564 7.52289 1.75061Z" fill="black"/>
</svg>
