<svg width="14" height="9" viewBox="0 0 14 9" fill="none" xmlns="http://www.w3.org/2000/svg">
<path d="M7.00001 0C4.25459 0 1.71155 1.42628 0.197249 3.81535C-0.0658538 4.23117 -0.0658538 4.76884 0.197874 5.18533C1.71152 7.57374 4.25441 9 6.99999 9C9.74557 9 12.2884 7.57372 13.8028 5.18465C14.0659 4.76883 14.0659 4.23116 13.8021 3.81467C12.2885 1.42626 9.74559 0 7.00001 0ZM4.41266 7.43864C3.04838 6.88905 1.86034 5.90841 1.02856 4.59543C0.991682 4.53717 0.991683 4.46433 1.02793 4.40606C1.87037 3.07713 3.07724 2.0919 4.46147 1.54556C3.67277 2.27394 3.1728 3.33339 3.1728 4.51539C3.1728 5.67217 3.65271 6.71161 4.41266 7.43864ZM5.6057 3.76178C5.19198 3.76178 4.85575 3.40554 4.85575 2.9672C4.85575 2.52886 5.19198 2.17262 5.6057 2.17262C6.01942 2.17262 6.35565 2.52886 6.35565 2.9672C6.35565 3.40488 6.01879 3.76178 5.6057 3.76178ZM12.9721 4.59477C12.1309 5.92172 10.926 6.90707 9.54288 7.45323C10.3116 6.72618 10.7978 5.67998 10.7978 4.51527C10.7978 3.32605 10.291 2.25993 9.49353 1.53104C10.8959 2.07334 12.1202 3.06326 12.9707 4.40543C13.0089 4.4637 13.009 4.5365 12.9721 4.59477Z" fill="black"/>
</svg>
