<svg width="14" height="6" viewBox="0 0 14 6" fill="none" xmlns="http://www.w3.org/2000/svg">
<path d="M13.8846 0.773392C13.8105 0.852548 13.7316 0.938073 13.648 1.02883C13.3876 1.31134 13.0758 1.64912 12.7113 2.00237L13.4408 2.69066C13.4853 2.73144 13.5213 2.78065 13.5466 2.83543C13.5719 2.89021 13.586 2.94946 13.5882 3.00975C13.5903 3.07003 13.5804 3.13013 13.5591 3.18657C13.5377 3.243 13.5054 3.29463 13.4638 3.33846C13.4223 3.38229 13.3724 3.41744 13.3171 3.44186C13.2619 3.46628 13.2023 3.47949 13.1418 3.48072C13.0814 3.48195 13.0213 3.47117 12.9651 3.44902C12.9089 3.42686 12.8576 3.39377 12.8143 3.35167L12.0333 2.61515C11.5307 3.04191 10.9848 3.41501 10.4043 3.72834L10.85 4.64342C10.9028 4.75201 10.9103 4.87709 10.8707 4.99116C10.8311 5.10522 10.7477 5.19893 10.6389 5.25165C10.5301 5.30438 10.4047 5.31181 10.2904 5.27231C10.1761 5.23281 10.0822 5.14961 10.0293 5.04102L9.57545 4.1098C8.89993 4.37352 8.18754 4.5312 7.46362 4.57723V5.54508C7.46362 5.66573 7.41559 5.78144 7.33009 5.86676C7.24458 5.95207 7.12862 6 7.0077 6C6.88678 6 6.77082 5.95207 6.68531 5.86676C6.59981 5.78144 6.55178 5.66573 6.55178 5.54508V4.57723C5.82756 4.53125 5.11485 4.37357 4.43903 4.1098L3.98562 5.04102C3.95946 5.09479 3.92293 5.14289 3.87814 5.18257C3.83335 5.22226 3.78116 5.25275 3.72455 5.27231C3.66795 5.29187 3.60804 5.30011 3.54824 5.29656C3.48845 5.29302 3.42994 5.27776 3.37605 5.25165C3.32217 5.22554 3.27396 5.1891 3.23419 5.14441C3.19442 5.09971 3.16386 5.04764 3.14426 4.99116C3.12466 4.93468 3.1164 4.8749 3.11995 4.81524C3.1235 4.75557 3.1388 4.69719 3.16496 4.64342L3.61108 3.72834C3.03051 3.4151 2.48445 3.042 1.98184 2.61515L1.20085 3.35167C1.11262 3.43242 0.996106 3.47531 0.876457 3.47107C0.756809 3.46683 0.643634 3.4158 0.561374 3.32901C0.479114 3.24221 0.434373 3.12661 0.436812 3.00717C0.439251 2.88773 0.488676 2.77405 0.574411 2.69066L1.30411 2.00305C0.939376 1.64957 0.627526 1.31179 0.367194 1.02906C0.283608 0.938074 0.20481 0.853003 0.130798 0.773846C0.0881599 0.730569 0.0546304 0.679217 0.0321842 0.622813C0.00973806 0.56641 -0.00117097 0.506095 9.94823e-05 0.44542C0.00136993 0.384746 0.0147942 0.324938 0.0395818 0.269519C0.0643694 0.2141 0.100019 0.16419 0.144432 0.122728C0.188845 0.0812653 0.241123 0.0490887 0.298188 0.0280928C0.355254 0.00709688 0.415952 -0.00229391 0.47671 0.000473142C0.537468 0.0032402 0.597056 0.018109 0.651967 0.0442046C0.706878 0.0703002 0.756002 0.107095 0.796445 0.152422C0.872128 0.232943 0.952826 0.320516 1.03831 0.413093C2.16558 1.63593 4.05241 3.68331 7.0077 3.68331C9.96299 3.68331 11.8494 1.63615 12.9769 0.413093C13.0626 0.320061 13.143 0.232488 13.219 0.151967C13.3024 0.0673164 13.4156 0.0185465 13.5346 0.0160669C13.6535 0.0135874 13.7687 0.0575947 13.8556 0.138695C13.9424 0.219796 13.9941 0.331566 13.9995 0.450148C14.0049 0.56873 13.9637 0.684732 13.8846 0.773392Z" fill="black"/>
</svg>
