<svg width="24" height="20" viewBox="0 0 24 20" fill="none" xmlns="http://www.w3.org/2000/svg">
<path d="M1.827 0C0.820188 0 0 0.793088 0 1.76431V18.2357C0 19.21 0.821267 20 1.827 20H22.173C23.1798 20 24 19.21 24 18.2357V1.76431C24 0.792046 23.1787 0 22.173 0H1.827ZM6.9832 2.34259C6.9832 2.56555 6.79449 2.74982 6.5615 2.74982H6.1398C5.90681 2.74982 5.7181 2.56555 5.7181 2.34259C5.7181 2.11964 5.90681 1.93536 6.1398 1.93536H6.5615C6.79449 1.93536 6.9832 2.1176 6.9832 2.34259ZM5.09925 2.34259C5.09925 2.56555 4.91054 2.74982 4.67755 2.74982H4.25585C4.02286 2.74982 3.83415 2.56555 3.83415 2.34259C3.83415 2.11964 4.02286 1.93536 4.25585 1.93536H4.67755C4.91054 1.93536 5.09925 2.1176 5.09925 2.34259ZM2.37204 1.93536H2.79374C3.02673 1.93536 3.21544 2.1176 3.21544 2.34259C3.21544 2.56759 3.02673 2.74982 2.79374 2.74982H2.37204C2.13905 2.74982 1.95034 2.56555 1.95034 2.34259C1.95034 2.11964 2.13905 1.93536 2.37204 1.93536ZM23.1534 18.2326C23.1534 18.7569 22.7116 19.1825 22.1698 19.1825H1.827C1.28407 19.1825 0.843398 18.7559 0.843398 18.2326V4.68524H23.1566V18.2326H23.1534Z" fill="#696C73"/>
<path d="M6.77458 13.4517C7.1678 13.7969 7.66858 13.9842 8.19675 13.9842C8.23048 13.9842 8.26738 13.9842 8.30112 13.9812C8.86621 13.9537 9.38593 13.7175 9.76863 13.3133C9.81396 13.2614 9.85613 13.2125 9.8983 13.1585L13.7358 14.9066C13.6905 15.0939 13.6684 15.2894 13.68 15.4879C13.7084 16.0367 13.953 16.5385 14.3715 16.9051C14.7648 17.2502 15.2655 17.4344 15.7937 17.4344H15.8981C17.0651 17.3774 17.9676 16.4164 17.9106 15.2894C17.8822 14.7437 17.6376 14.2418 17.219 13.8752C16.8005 13.5087 16.2607 13.3184 15.6925 13.3459C15.1274 13.3733 14.6077 13.6095 14.225 14.0168C14.1797 14.0656 14.1354 14.1176 14.0953 14.1685L10.2578 12.4225C10.3052 12.2321 10.3253 12.0366 10.3137 11.8391C10.3084 11.7057 10.2884 11.5785 10.2546 11.4512L14.0973 9.70522C14.4853 10.2051 15.1009 10.5309 15.7957 10.5309C16.9627 10.5309 17.9126 9.61361 17.9126 8.48658C17.9126 7.35955 16.9628 6.43922 15.7957 6.43922C14.6286 6.43922 13.6756 7.3565 13.6756 8.48658C13.6756 8.65253 13.6977 8.81541 13.7378 8.97017L9.8973 10.7162C9.81612 10.6103 9.72335 10.5126 9.62215 10.423C9.20361 10.0565 8.66383 9.86913 8.09561 9.89662C6.92856 9.95058 6.02611 10.9116 6.08306 12.0387C6.11152 12.5844 6.3561 13.0863 6.77465 13.4528L6.77458 13.4517Z" fill="#696C73"/>
</svg>
