<svg width="15" height="15" viewBox="0 0 15 15" fill="none" xmlns="http://www.w3.org/2000/svg">
<g clip-path="url(#clip0_2531_307)">
<path d="M7.4821 12.0243C10.0095 12.0243 12.0286 10.0071 12.0286 7.48926C12.0286 4.97854 9.99523 2.96137 7.47495 2.96137C4.96181 2.96137 2.95704 4.97139 2.95704 7.48926C2.95704 10.0143 4.96897 12.0243 7.4821 12.0243ZM7.50354 1.48784C7.91168 1.48784 8.24106 1.1588 8.24106 0.74392C8.24106 0.329041 7.91168 0 7.50354 0C7.08832 0 6.75894 0.329041 6.75894 0.74392C6.75894 1.1588 7.08832 1.48784 7.50354 1.48784ZM10.8759 2.39628C11.284 2.39628 11.6133 2.06724 11.6133 1.65236C11.6133 1.23748 11.284 0.908441 10.8759 0.908441C10.4606 0.908441 10.1312 1.23748 10.1312 1.65236C10.1312 2.06724 10.4606 2.39628 10.8759 2.39628ZM13.3532 4.8641C13.7613 4.8641 14.0907 4.53506 14.0907 4.12017C14.0907 3.70529 13.7613 3.37625 13.3532 3.37625C12.9379 3.37625 12.6086 3.70529 12.6086 4.12017C12.6086 4.53506 12.9379 4.8641 13.3532 4.8641ZM14.2625 8.24035C14.6706 8.24035 15 7.91129 15 7.4964C15 7.08157 14.6706 6.75251 14.2625 6.75251C13.8473 6.75251 13.5179 7.08157 13.5179 7.4964C13.5179 7.91129 13.8473 8.24035 14.2625 8.24035ZM13.3532 11.6166C13.7613 11.6166 14.0907 11.2876 14.0907 10.8727C14.0907 10.4578 13.7613 10.1288 13.3532 10.1288C12.9379 10.1288 12.6086 10.4578 12.6086 10.8727C12.6086 11.2876 12.9379 11.6166 13.3532 11.6166ZM10.8759 14.0844C11.284 14.0844 11.6133 13.7554 11.6133 13.3405C11.6133 12.9256 11.284 12.5966 10.8759 12.5966C10.4606 12.5966 10.1312 12.9256 10.1312 13.3405C10.1312 13.7554 10.4606 14.0844 10.8759 14.0844ZM7.50354 14.9929C7.91168 14.9929 8.24106 14.6567 8.24106 14.249C8.24106 13.8341 7.91168 13.505 7.50354 13.505C7.08832 13.505 6.75894 13.8341 6.75894 14.249C6.75894 14.6567 7.08832 14.9929 7.50354 14.9929ZM4.13126 14.0844C4.53938 14.0844 4.87589 13.7554 4.87589 13.3405C4.87589 12.9256 4.53938 12.5966 4.13126 12.5966C3.71599 12.5966 3.38663 12.9256 3.38663 13.3405C3.38663 13.7554 3.71599 14.0844 4.13126 14.0844ZM1.65394 11.6166C2.06205 11.6166 2.39857 11.2876 2.39857 10.8727C2.39857 10.4578 2.06205 10.1288 1.65394 10.1288C1.23866 10.1288 0.909306 10.4578 0.909306 10.8727C0.909306 11.2876 1.23866 11.6166 1.65394 11.6166ZM0.74463 8.24035C1.15991 8.24035 1.48926 7.91129 1.48926 7.4964C1.48926 7.08157 1.15991 6.75251 0.74463 6.75251C0.329355 6.75251 0 7.08157 0 7.4964C0 7.91129 0.329355 8.24035 0.74463 8.24035ZM1.65394 4.8641C2.06205 4.8641 2.39857 4.53506 2.39857 4.12017C2.39857 3.70529 2.06205 3.37625 1.65394 3.37625C1.23866 3.37625 0.909306 3.70529 0.909306 4.12017C0.909306 4.53506 1.23866 4.8641 1.65394 4.8641ZM4.13126 2.39628C4.53938 2.39628 4.87589 2.06724 4.87589 1.65236C4.87589 1.23748 4.53938 0.908441 4.13126 0.908441C3.71599 0.908441 3.38663 1.23748 3.38663 1.65236C3.38663 2.06724 3.71599 2.39628 4.13126 2.39628Z" fill="#696C73"/>
</g>
<defs>
<clipPath id="clip0_2531_307">
<rect width="15" height="15" fill="white"/>
</clipPath>
</defs>
</svg>
