<svg width="17" height="18" viewBox="0 0 17 18" fill="none" xmlns="http://www.w3.org/2000/svg">
<path d="M8.52615 0C13.1815 0 17 3.95323 17 8.77292C17 13.6468 13.1815 17.6 8.52615 17.6C3.81846 17.6 2.86847e-07 13.6468 2.86847e-07 8.77292C2.86847e-07 3.95323 3.81846 0 8.52615 0ZM8.52615 4.44062C7.00923 4.44062 5.80615 5.68615 5.80615 7.20246C5.80615 8.77292 7.00923 10.0185 8.52615 10.0185C9.99077 10.0185 11.1938 8.77292 11.1938 7.20246C11.1938 5.68615 9.99077 4.44062 8.52615 4.44062ZM10.7754 10.5058H6.27692C4.28923 10.5058 3.19077 12.0222 3.08615 13.8634C3.08615 14.08 3.13846 14.2425 3.29538 14.4049C6.22462 17.2209 10.8277 17.2209 13.7569 14.4049C13.8615 14.2425 13.9662 14.08 13.9138 13.8634C13.8092 12.0222 12.7108 10.5058 10.7754 10.5058Z" fill="black"/>
</svg>
