<svg width="14" height="15" viewBox="0 0 14 15" fill="none" xmlns="http://www.w3.org/2000/svg">
<path d="M4.2 13.45V14.15C4.2 14.3432 4.0432 14.5 3.85 14.5H0.35C0.1568 14.5 0 14.3432 0 14.15V10.65C0 10.4568 0.1568 10.3 0.35 10.3H1.05C1.2432 10.3 1.4 10.4568 1.4 10.65V13.1H3.85C4.0432 13.1 4.2 13.2568 4.2 13.45ZM13.65 10.3H12.95C12.7568 10.3 12.6 10.4568 12.6 10.65V13.1H10.15C9.9568 13.1 9.8 13.2568 9.8 13.45V14.15C9.8 14.3432 9.9568 14.5 10.15 14.5H13.65C13.8432 14.5 14 14.3432 14 14.15V10.65C14 10.4568 13.8432 10.3 13.65 10.3ZM13.65 0.5H10.15C9.9568 0.5 9.8 0.6568 9.8 0.85V1.55C9.8 1.7432 9.9568 1.9 10.15 1.9H12.6V4.35C12.6 4.5432 12.7568 4.7 12.95 4.7H13.65C13.8432 4.7 14 4.5432 14 4.35V0.85C14 0.6568 13.8432 0.5 13.65 0.5ZM7.7 6.45V2.95C7.7 2.7568 7.8568 2.6 8.05 2.6H11.55C11.7432 2.6 11.9 2.7568 11.9 2.95V6.45C11.9 6.6432 11.7432 6.8 11.55 6.8H8.05C7.8568 6.8 7.7 6.6432 7.7 6.45ZM10.5 5.4V4H9.1V5.4H10.5ZM6.3 2.95V6.45C6.3 6.6432 6.1432 6.8 5.95 6.8H2.45C2.2568 6.8 2.1 6.6432 2.1 6.45V2.95C2.1 2.7568 2.2568 2.6 2.45 2.6H5.95C6.1432 2.6 6.3 2.7568 6.3 2.95ZM4.9 5.4V4H3.5V5.4H4.9ZM6.3 8.55V12.05C6.3 12.2432 6.1432 12.4 5.95 12.4H2.45C2.2568 12.4 2.1 12.2432 2.1 12.05V8.55C2.1 8.3568 2.2568 8.2 2.45 8.2H5.95C6.1432 8.2 6.3 8.3568 6.3 8.55ZM4.9 11V9.6H3.5V11H4.9ZM0.35 4.7H1.05C1.2432 4.7 1.4 4.5432 1.4 4.35V1.9H3.85C4.0432 1.9 4.2 1.7432 4.2 1.55V0.85C4.2 0.6568 4.0432 0.5 3.85 0.5H0.35C0.1568 0.5 0 0.6568 0 0.85V4.35C0 4.5432 0.1568 4.7 0.35 4.7ZM11.55 11H10.85C10.6568 11 10.5 11.1568 10.5 11.35V12.05C10.5 12.2432 10.6568 12.4 10.85 12.4H11.55C11.7432 12.4 11.9 12.2432 11.9 12.05V11.35C11.9 11.1568 11.7432 11 11.55 11ZM11.9 8.55C11.9 8.3568 11.7432 8.2 11.55 8.2H10.85C10.6568 8.2 10.5 8.3568 10.5 8.55V9.25C10.5 9.4432 10.6568 9.6 10.85 9.6H11.55C11.7432 9.6 11.9 9.4432 11.9 9.25V8.55ZM10.5 10.65V9.95C10.5 9.7568 10.3432 9.6 10.15 9.6H9.45C9.2568 9.6 9.1 9.7568 9.1 9.95V10.65C9.1 10.8432 9.2568 11 9.45 11H10.15C10.3432 11 10.5 10.8432 10.5 10.65ZM9.1 8.55C9.1 8.3568 8.9432 8.2 8.75 8.2H8.05C7.8568 8.2 7.7 8.3568 7.7 8.55V9.25C7.7 9.4432 7.8568 9.6 8.05 9.6H8.75C8.9432 9.6 9.1 9.4432 9.1 9.25V8.55Z" fill="#D0D0D0"/>
</svg>
