<svg width="16" height="16" viewBox="0 0 16 16" fill="none" xmlns="http://www.w3.org/2000/svg">
<path d="M15.8328 15.0229L11.1133 10.303C12.0218 9.21152 12.5703 7.81152 12.5703 6.28575C12.5703 2.81712 9.75347 0 6.28516 0C2.81685 0 0 2.81712 0 6.28575C0 9.75439 2.81685 12.5715 6.28516 12.5715C7.81075 12.5715 9.21629 12.0229 10.302 11.1143L15.0215 15.8343C15.1358 15.9486 15.2786 16 15.4272 16C15.5758 16 15.7186 15.9429 15.8329 15.8343C16.0557 15.6114 16.0557 15.2514 15.8329 15.0286L15.8328 15.0229ZM1.14261 6.28575C1.14261 3.45145 3.45098 1.14286 6.28501 1.14286C9.11905 1.14286 11.4274 3.45145 11.4274 6.28575C11.4274 9.12006 9.11905 11.4286 6.28501 11.4286C3.45098 11.4286 1.14261 9.12006 1.14261 6.28575Z" fill="#BBBBBB"/>
</svg>
