<svg width="18" height="18" viewBox="0 0 18 18" fill="none" xmlns="http://www.w3.org/2000/svg">
<path d="M17.5381 7.52L16.417 7.02C16.0766 6.88 15.7963 6.6 15.6562 6.26C15.5161 5.92 15.5161 5.54 15.6562 5.18L16.0967 4.04C16.2568 3.8 16.2368 3.46 16.0166 3.24L14.7753 2C14.5551 1.78 14.2347 1.76 13.9745 1.92L12.8333 2.38C12.4929 2.52 12.1125 2.52 11.7522 2.38C11.4118 2.24 11.1315 1.96 10.9914 1.62L10.4909 0.5C10.4308 0.2 10.1705 0 9.87021 0H8.12841C7.8281 0 7.56783 0.2 7.50777 0.5L7.00725 1.64C6.68692 2.34 5.88609 2.68 5.16534 2.4L4.04418 1.94C3.80394 1.78 3.46358 1.8 3.24336 2.02L2.00207 3.26C1.78184 3.48 1.76182 3.8 1.92199 4.06L2.38246 5.18C2.52261 5.52 2.52261 5.92 2.38246 6.26C2.24232 6.6 1.96203 6.88 1.62168 7.02L0.500518 7.52C0.200207 7.58 0 7.84 0 8.14V9.88C0 10.18 0.200207 10.44 0.500518 10.5L1.62168 11C1.96203 11.14 2.24232 11.42 2.38246 11.76C2.52261 12.1 2.52261 12.48 2.38246 12.84L1.92199 13.96C1.76182 14.2 1.78184 14.54 2.00207 14.76L3.24336 16C3.46358 16.22 3.78392 16.24 4.04418 16.08L5.16534 15.62C5.5057 15.48 5.88609 15.48 6.24646 15.62C6.58682 15.76 6.86711 16.04 7.00725 16.38L7.50777 17.5C7.56783 17.8 7.8281 18 8.12841 18H9.87021C10.1705 18 10.4308 17.8 10.4909 17.5L10.9914 16.38C11.1315 16.04 11.4118 15.76 11.7522 15.62C12.0925 15.48 12.4729 15.48 12.8333 15.62L13.9745 16.06C14.2147 16.22 14.5551 16.2 14.7753 15.98L16.0166 14.74C16.2368 14.52 16.2568 14.2 16.0967 13.94L15.6162 12.82C15.476 12.48 15.476 12.08 15.6162 11.74C15.7563 11.4 16.0366 11.12 16.3769 10.98L17.4981 10.48C17.7984 10.42 17.9986 10.16 17.9986 9.86V8.1C18.0186 7.82 17.8184 7.58 17.5381 7.52ZM9.00932 13.08C6.767 13.08 4.9251 11.26 4.9251 9C4.9251 6.74 6.767 4.92 9.00932 4.92C11.2516 4.92 13.0935 6.76 13.0935 9C13.0935 11.24 11.2516 13.08 9.00932 13.08Z" fill="black"/>
</svg>
