<svg width="24" height="21" viewBox="0 0 24 21" fill="none" xmlns="http://www.w3.org/2000/svg">
<path d="M24 6.95695V17.1274C24 17.9707 23.6649 18.7792 23.069 19.3752C22.473 19.9711 21.6646 20.3062 20.8212 20.3062H6.94463C5.18938 20.3062 3.76586 18.8827 3.76586 17.1274V12.7264C3.7726 12.4521 3.91091 12.1968 4.13805 12.0428H23.1364V8.33664H10.8059C11.4783 7.2212 11.8348 5.94385 11.8381 4.64174C11.8381 4.16272 12.2227 3.77369 12.7017 3.76692H20.7976C21.6454 3.76355 22.4595 4.09862 23.0611 4.69683C23.6615 5.29502 24 6.10911 24 6.95695ZM4.6418 9.25979C3.41168 9.26316 2.23214 8.7774 1.3617 7.90935C0.490276 7.04129 0.00112457 5.86287 1.93959e-06 4.63385C-0.00112271 3.40486 0.486879 2.22532 1.35606 1.35606C2.22523 0.486879 3.40365 -0.0011207 4.63385 1.93266e-06C5.86285 0.00112658 7.04127 0.491369 7.9082 1.3617C8.77625 2.23312 9.262 3.41266 9.25864 4.6418C9.25864 5.8663 8.77288 7.04132 7.90707 7.90722C7.04014 8.77303 5.86639 9.25979 4.6418 9.25979ZM3.60958 6.88499L5.25349 5.25343C5.33107 5.17022 5.39179 5.0724 5.4334 4.96558C5.48062 4.86438 5.50536 4.75418 5.50536 4.64174V2.32765C5.45364 1.88689 5.07919 1.55404 4.63506 1.55404C4.19093 1.55404 3.81761 1.88686 3.76589 2.32765V4.28192L2.41095 5.66161C2.08712 5.9967 2.08712 6.52629 2.41095 6.86138C2.57287 7.02555 2.79213 7.12 3.02265 7.1245C3.24191 7.12225 3.45215 7.03679 3.60958 6.88499Z" fill="#696C73"/>
</svg>
