<svg width="24" height="20" viewBox="0 0 24 20" fill="none" xmlns="http://www.w3.org/2000/svg">
<path d="M8.04695 13.8687C8.09969 13.7913 8.15242 13.7152 8.20516 13.6404C8.75593 12.8695 9.40985 12.1959 10.1399 11.6308C9.0536 10.9384 7.7856 10.5518 6.4754 10.5518H6.41798C4.21719 10.5518 2.12884 11.6345 0.834028 13.4483C0.794185 13.5032 0.756685 13.5593 0.718011 13.6154L0.450823 14.0121C-0.0765218 14.793 -0.145673 15.771 0.266837 16.628C0.679341 17.4849 1.46568 17.9964 2.3692 17.9964H7.15754C6.80129 16.7689 6.99465 15.4292 7.71653 14.3601L8.04695 13.8687Z" fill="#696C73"/>
<path d="M9.89857 5.67821C9.89857 7.70778 8.35287 9.35191 6.44734 9.35191C4.54067 9.35191 2.99491 7.70781 2.99491 5.67821C2.99491 3.6486 4.54061 2.0045 6.44734 2.0045C8.35284 2.0045 9.89857 3.6486 9.89857 5.67821Z" fill="#696C73"/>
<path d="M23.4221 14.8979L23.0916 14.4076C23.0447 14.3378 22.9955 14.2679 22.9475 14.1993C21.3256 11.929 18.7135 10.5732 15.9583 10.5732H15.8868C14.4009 10.5732 12.9595 10.9699 11.6892 11.6897C11.5544 11.7658 11.4208 11.8468 11.2907 11.9304C11.1595 12.014 11.0306 12.1013 10.904 12.1924C10.1399 12.7413 9.45908 13.4136 8.89775 14.1995C8.84853 14.2681 8.80048 14.338 8.75243 14.4091L8.42195 14.898C7.79734 15.8224 7.6813 16.9613 8.08327 17.9941C8.11609 18.079 8.14538 18.1638 8.18523 18.2474C8.22039 18.321 8.26375 18.3871 8.30359 18.4569C8.39734 18.6216 8.50046 18.7775 8.61649 18.9185C9.18017 19.6046 9.98174 20 10.8771 20H20.9659C22.1237 20 23.1303 19.3451 23.6589 18.2486C24.1862 17.1509 24.0983 15.8983 23.4221 14.8979Z" fill="#696C73"/>
<path d="M15.922 9.30816C18.3326 9.30816 20.2943 7.21995 20.2943 4.65408C20.2943 2.08811 18.3325 0 15.922 0C13.5114 0 11.5498 2.0882 11.5498 4.65408C11.5486 7.22129 13.5104 9.30816 15.922 9.30816Z" fill="#696C73"/>
</svg>
